<?xml version="1.0" encoding="utf-8"?>
<!-- Generator: Adobe Illustrator 24.2.0, SVG Export Plug-In . SVG Version: 6.00 Build 0)  -->
<svg version="1.1" id="Layer_1" xmlns="http://www.w3.org/2000/svg" xmlns:xlink="http://www.w3.org/1999/xlink" x="0px" y="0px"
	 viewBox="0 0 800 800" enable-background="new 0 0 800 800" xml:space="preserve">
<g>
	<path fill="#079986" d="M451.03,79.08c15.95-8.83,34.71-10.57,52.63-10.71c-1.89,10.81-4.36,21.59-8.49,31.79
		c-2.92,6.71-6.06,13.5-11.06,18.95c-6.81,7.69-16.64,13.28-27.1,13.26c-7.27-0.18-14.58-2.55-20.36-6.98
		c-4.39-8.38-5.42-18.69-1.91-27.58C438,90.08,443.95,83.52,451.03,79.08z"/>
	<path fill="#079986" d="M250.17,107.22c8.06-15.27,21.58-26.68,35.18-36.88c3.79,5.76,5.8,12.41,8.34,18.76
		c4.25,12.59,7.64,26.26,4.59,39.5c-2.43,9.03-7.6,18.02-16.15,22.46c-5.47,2.85-11.66,4.8-17.88,4.45
		c-5.88-2.58-10.5-7.45-13.94-12.77C243.71,132.1,244.63,118.1,250.17,107.22z"/>
	<path fill="#079986" d="M310.13,105.66c-2.85-12.99,3.8-27,14.89-33.96c10.28-1.19,21.37,2.04,28.51,9.75
		c7.96,8.35,11.53,20.16,10.89,31.56c0.44,8.67-2.48,17.02-2.89,25.59c-7.74,1.87-15.69,2.67-23.52,4.07
		C325.42,133.59,312.81,121.69,310.13,105.66z"/>
	<path fill="#079986" d="M386.11,94.03c3.65-5.27,7.3-10.62,11.88-15.15c8.06,9.33,15.16,19.56,20.5,30.69
		c4.06,8.55,6.82,18.04,5.67,27.59c-5.35-0.67-10.74-1.06-16.14-1.08c-12.24-0.07-24.53-0.45-36.7,1.01
		c0.24-4.31-0.19-8.7,0.83-12.94C374.6,113.25,380.09,103.34,386.11,94.03z"/>
	<path fill="#079986" d="M516.58,104.58c6.85-4.71,15.2-6.92,23.47-6.81c10.68,0.44,20.83,6.68,26.46,15.65
		c0.88,6.48,0.14,13.33-2.88,19.21c-4.15,8.94-12.79,15.09-22.05,17.91c-9.23,2.9-19.11,2.09-28.52,0.58
		c-9.99-1.84-19.82-4.55-29.24-8.36C492.12,128.14,502.49,114.09,516.58,104.58z"/>
	<path fill="#079986" d="M196.64,126.05c9.6-1.57,20.08-0.58,28.27,5.05c6.64,4.79,11.85,11.9,13.66,19.94
		c-1.99,11.33-10.44,21.43-21.47,24.99c-9.97,3.49-21.03,2.48-30.72-1.43c-13.07-5.07-24.79-13.04-35.61-21.84
		c3.83-3.88,8.12-7.28,12.6-10.38C173.41,135.13,184.43,128.72,196.64,126.05z"/>
	<path fill="#079986" d="M577.54,136.96c8.06,4.86,15.05,11.27,21.9,17.67c8.83,9.24,17.3,20.17,18.58,33.34
		c2.25,14.37-6.62,29.41-20.09,34.69c-4.23-5.26-9.19-9.86-13.99-14.58c-5.86-5.72-12.08-11.15-19-15.55
		C562.4,173.16,569.68,154.28,577.54,136.96z"/>
	<path fill="#079986" d="M653.52,163.3c0.34-0.15,1.03-0.45,1.37-0.6c10.02,10.92,18.59,23.46,23.92,37.36
		c4.03,10.51,4.22,22.78-0.9,32.95c-4.23,8.22-12.2,14.23-21.04,16.67c-4.24,0.34-8.06-2.12-11.68-4
		c-8.41-4.71-14.09-13.46-15.63-22.91c-2.34-10.28,0.89-20.78,5.06-30.15C639.58,182.08,645.91,172.13,653.52,163.3z"/>
	<path fill="#079986" d="M166.42,191.5c8.51-3.03,18.13-3.89,26.66-0.47c8.37,3.2,14.92,10.12,18.64,18.16
		c-11,9.98-20.83,21.16-30,32.83c-19.63,2.54-38.91-4.49-56.38-12.77c6.84-9.31,14.09-18.45,22.82-26.09
		C153.77,198.62,159.55,194,166.42,191.5z"/>
	<path fill="#079986" d="M100.45,241.5c2.36-2.11,5.75-1.22,8.61-1.27c11.82,0.44,22.68,8.27,27.58,18.91
		c3.85,7.29,4.88,15.75,4.26,23.88c-0.56,13.78-4.46,27.23-9.52,39.99c-12.87-6.93-24.66-16.08-34.19-27.19
		c-6.62-7.69-10.8-17.6-10.72-27.82C86.32,257.53,92.1,247.57,100.45,241.5z"/>
	<path fill="#079986" d="M654.56,270.52c6.14-8.15,16.04-13.9,26.44-13.39c11.98-0.58,23.02,5.46,31.9,12.98
		c8.97,7.92,17.24,16.77,23.79,26.81c-13.65,6.92-28.38,12.28-43.7,13.63c-10.09,0.97-20.59-1.55-28.69-7.76
		c-8.06-5.97-12.55-15.99-12.82-25.88C651.27,274.37,653.21,272.45,654.56,270.52z"/>
	<path fill="#079986" d="M56.71,303.52c14.1,1.79,27.97,5.8,40.67,12.24c8.92,4.56,16.71,11.77,20.72,21.08
		c4.94,10.5,3.07,23.4-3.54,32.73c-2.85,2.68-6.99,3.25-10.66,4.13c-9.86,2.22-20.24-1.38-27.73-7.88
		c-10.09-8.36-14.37-21.5-16.78-33.93C57.36,322.56,57.3,313,56.71,303.52z"/>
	<path fill="#079986" d="M664.71,349.19c8.82-12.95,21.16-25.38,37.27-28c12.88-2.57,26.75,4.04,33.44,15.15
		c0.92,8.37-0.95,17.21-5.96,24.08c-5.81,7.76-14.84,12.65-24.23,14.54c-12.24,1.88-24.59-0.23-36.56-2.79
		C667.14,364.54,666.23,356.81,664.71,349.19z"/>
	<path fill="#079986" d="M111.55,383.71c4.59-1.2,9.39-1.64,14.08-0.76c-0.7,12.33-1.28,24.69-0.81,37.05
		c0.22,5.02-0.41,10.09,0.39,15.08c-11.92,1.9-23.38-3.46-33.68-8.82c-8.59-5.04-17-10.6-24.18-17.55
		C80.62,398.2,94.79,387.68,111.55,383.71z"/>
	<path fill="#079986" d="M669.78,382.72c13.46-1.58,26.27,4.24,37.57,10.91c7.09,4.41,14.11,9.08,20.25,14.78
		c0.4,1.74-1.66,2.48-2.62,3.56c-12.12,9.45-25.19,18.42-40.25,22.34c-4.83,1.35-9.87,1.3-14.83,1.1
		c0.56-6.12,0.56-12.26,1.14-18.37C672.15,405.58,670.15,394.16,669.78,382.72z"/>
	<path fill="#079986" d="M89.1,443.39c12.64-2.51,25.49-0.02,37.92,2.42c1.08,7.99,2.86,15.86,4.29,23.79
		c-8.36,9.48-16.61,20.08-28.79,24.79c-6.44,2.26-13.51,3.82-20.3,2.33c-8.7-1.53-16.66-6.94-21.56-14.22
		c-1.22-7.72,0.09-15.98,4.14-22.73C70.11,451.19,79.39,445.58,89.1,443.39z"/>
	<path fill="#079986" d="M681.78,447.78c4.84-2.89,10.67-3.75,16.23-4.05c13.67-0.09,25.78,9.55,31.65,21.43
		c7.36,15.34,9.25,32.74,8.95,49.57c-12.82-2.26-25.61-5.39-37.4-11.02c-11.09-5.09-21.02-13.94-24.85-25.8
		C672.74,467.82,675.37,456.14,681.78,447.78z"/>
	<path fill="#079986" d="M664.38,495.08c12.9,6.89,24.8,16.03,34.23,27.25c7.51,8.55,11.75,20.21,10.46,31.6
		c-1.06,9.28-6.85,17.33-14.08,22.94c-2.63,1.9-6.06,1.36-9.07,0.99c-6.83-0.79-13.64-3.3-18.67-8.11
		c-9.44-8.34-13.29-21.46-12.61-33.76C655.47,521.92,659.14,508.12,664.38,495.08z"/>
	<path fill="#079986" d="M59.06,520.92c16.47-7.77,34.31-14.69,52.84-13.34c10.07,1.16,20.16,5.99,26.1,14.42
		c4.17,5.75,6.13,12.95,6.34,19.98c-2.37,5.81-7.17,10.5-12.28,14.04c-8.32,5.87-19.25,5.61-28.79,3.57
		c-12.81-3.91-23.01-13.3-31.96-22.9C66.89,531.72,62.37,526.73,59.06,520.92z"/>
	<path fill="#079986" d="M131.41,571.41c3.58-1.78,7.69-4.28,11.76-2.53c6.49,2.51,12.91,6.14,16.95,11.97
		c7.11,9.5,8.08,22.44,5.06,33.63c-4.6,15.33-13.58,28.89-23.53,41.26c-6.98-6.29-12.13-14.28-17.09-22.17
		c-6.42-10.91-12.13-23.39-10.29-36.37C115.22,586.45,121.83,576.41,131.41,571.41z"/>
	<path fill="#079986" d="M614.57,576.04c19.29-2.66,38.26,4.57,55.46,12.56c-6.75,10.98-15.71,20.59-25.61,28.81
		c-7,5.74-15.27,10.36-24.39,11.44c-14.57,2.68-30.29-6.18-35.69-19.92c6.91-5.58,13.2-11.9,18.81-18.79
		C607.04,585.51,611.34,581.18,614.57,576.04z"/>
	<path fill="#079986" d="M197.63,594.51c4.56,4.06,8.61,8.67,13.21,12.71c6.68,6.02,13.89,11.46,20.27,17.82
		c1.8,19.49-4.66,38.6-12.94,55.95c-8.92-5.5-16.88-12.51-24.13-20.04c-8.1-8.91-15.69-19.48-16.4-31.92
		c-0.99-9.51,2.25-19.51,9.21-26.16C189.96,599.49,194,597.25,197.63,594.51z"/>
	<path fill="#079986" d="M580.29,641.47c10.92-3.51,22.69-1.06,32.89,3.53c11.49,5.28,22.37,12.09,31.78,20.57
		c-11.69,10.27-24.71,19.47-39.5,24.64c-10.31,3.81-22.24,3.33-32.05-1.71c-7.52-3.91-12.78-11.18-15.59-19.02
		c-1.34-3.68,0.43-7.46,2-10.74C563.9,650.51,571.27,643.75,580.29,641.47z"/>
	<path fill="#079986" d="M505.51,673.52c5.61-6.52,14.04-10.18,22.51-10.99c1.55,0.01,3.32-0.39,4.73,0.5
		c8.38,5.01,15.24,13.32,16.79,23.16c0.78,7.59,0.33,15.55-2.94,22.55c-5.02,10.88-13.44,19.68-22.16,27.7
		c-4.59,3.99-9.31,7.84-14.39,11.2c-6.9-13.98-12.61-28.97-13.67-44.66C495.52,692.47,498.66,681.61,505.51,673.52z"/>
	<path fill="#079986" d="M238.5,676.47c7.85-7.44,18.79-11.06,29.51-10.88c15.11,0.15,29.9,4.29,43.9,9.7
		c-8.4,14.74-18.9,28.87-33.16,38.4c-6.05,4.26-13.47,6-20.75,6.54c-11.24,0.42-22.18-5.61-28.4-14.86
		c-0.71-0.99-1.03-2.09-0.96-3.3C228.36,692.69,231.65,683.04,238.5,676.47z"/>
	<path fill="#079986" d="M434.52,680.95c8.38-0.69,16.43-3.27,24.71-4.64c10.84,8.68,22.38,18.71,25.67,32.84
		c2.29,8.55,1.53,18.08-3.13,25.73c-2.53,3.98-5.68,7.63-9.44,10.49c-1.47,1.24-3.48,1.06-5.27,1.13
		c-7.45,0.03-15.09-1.91-21.05-6.51c-9.6-7.52-14.88-19.86-14.63-31.95C431.07,698.89,432.47,689.83,434.52,680.95z"/>
	<path fill="#079986" d="M371.39,680.72c8.53,0.49,17.05,1.62,25.61,1.33c9.04-0.31,18.09-0.38,27.12-1.05
		c1.75,12.92-4.1,25.16-10.2,36.13c-4.68,7.76-9.92,15.22-15.93,22.02c-10.54-11.79-19.55-25.36-24.54-40.47
		C371.32,692.93,371.26,686.77,371.39,680.72z"/>
	<path fill="#079986" d="M329.65,687.01c9.76-3.13,20.86-0.69,28.99,5.34c4.49,6.44,4.63,14.88,3.87,22.44
		c-1.6,8.72-7.31,16.15-14.09,21.61c-7.43,5.56-16.46,8.4-25.43,10.34c-10.11,2.21-20.47,3.06-30.8,2.86
		c2.49-16,6.96-32,15.61-45.83C312.81,695.83,320.77,689.94,329.65,687.01z"/>
</g>
<g>
	<g>
		<path fill="#325E9B" d="M371.32,137.09c12.17-1.46,24.46-1.08,36.7-1.01c5.4,0.02,10.79,0.41,16.14,1.08
			c46.68,4.45,92.18,21.11,130.5,48.17c3.43,2.38,6.74,4.96,10.28,7.2c6.92,4.4,13.14,9.83,19,15.55c4.8,4.72,9.76,9.32,13.99,14.58
			c3.46,4.02,6.75,8.2,10.51,11.95c1.7,1.76,4.32,1.85,6.55,2.48c-0.74,0.71-1.48,1.42-2.22,2.12c2.33,3.31,4.84,6.48,7.24,9.75
			c2.87,3.91,5,8.3,7.8,12.26c1.98,2.82,4.09,5.56,5.74,8.6c5.85,11.72,12.33,23.15,17.19,35.35c5.94,14.23,10.3,29.05,13.97,44.02
			c1.52,7.62,2.43,15.35,3.96,22.98c0.61,3.49,0.88,7.02,1.11,10.55c0.37,11.44,2.37,22.86,1.26,34.32
			c-0.58,6.11-0.58,12.25-1.14,18.37c-4.02,42.56-18.32,84.14-41.4,120.14c-4.33,7.04-9.37,13.6-13.93,20.49
			c-3.23,5.14-7.53,9.47-11.42,14.1c-5.61,6.89-11.9,13.21-18.81,18.79c-3.82,3.32-7.74,6.51-11.43,9.96
			c-1.6,1.33-2.11,3.39-2.78,5.26c-5.52,0.19-8.99,4.91-13.29,7.68c-6.49,4.34-12.76,9.09-19.72,12.67
			c-5.56,2.47-10.72,5.72-16.15,8.43c-18.1,9.1-37.21,16.14-56.84,21.12c-1.64,0.39-3.32,0.66-4.99,0.78
			c-8.27,0.61-16.75,1.15-24.52,4.24c-3.36,1.26-6.98,1.47-10.5,1.93c-9.03,0.67-18.08,0.74-27.12,1.05
			c-8.56,0.29-17.08-0.84-25.61-1.33c-44.67-3.98-88.21-19.66-125.43-44.66c-5.07-3.49-10.34-6.8-14.85-11.02
			c-6.38-6.36-13.59-11.8-20.27-17.82c-4.6-4.04-8.65-8.65-13.21-12.71c-4.47-3.89-7.68-8.98-12.19-12.83
			c-3.29-3.5-5.75-7.65-8.57-11.52c-5.18-7.07-10.38-14.18-14.68-21.84c-1.08-2.37-2.15-4.75-3.43-7.02
			c-12.49-22.44-21.8-46.65-27.45-71.7c-1.43-7.93-3.21-15.8-4.29-23.79c-0.42-3.61-0.89-7.21-1.81-10.73
			c-0.8-4.99-0.17-10.06-0.39-15.08c-0.47-12.36,0.11-24.72,0.81-37.05c2.21-19.7,6-39.25,12.15-58.11
			c9.73-29.85,24.55-58.12,43.94-82.82c9.17-11.67,19-22.85,30-32.83c3.25-3.27,6.73-6.29,10.29-9.21c1.6-1.19,2.53-2.96,3.2-4.79
			c4.47-2.35,8.67-5.18,12.7-8.22c6.35-4.79,14.27-7.68,19.11-14.3c4.84,0.72,8.57-3.04,12.68-4.92
			c21.54-11.27,44.46-20.21,68.31-25.08c7.83-1.4,15.78-2.2,23.52-4.07C364.75,137.84,368.04,137.46,371.32,137.09z M381.36,157.29
			c-24.25,1.37-48.23,6.64-71,15.05c-56,20.6-104.11,61.8-133.04,113.99c-19.85,35.18-30.84,75.32-31.86,115.68
			c-1.38,45.29,9.82,90.91,32.18,130.33c17.52,31.1,41.63,58.49,70.38,79.65c33.02,24.38,72.05,40.71,112.7,46.62
			c39,5.96,79.36,2.28,116.8-10.11c34.64-11.53,66.64-30.75,93.25-55.73c26.76-25.18,48.08-56.18,61.68-90.34
			c17.17-42.92,22.3-90.63,14.27-136.17c-6.88-41.02-24.46-80.15-50.18-112.81c-22.97-29.34-52.57-53.43-85.87-70.13
			C470.91,163.36,425.74,154.16,381.36,157.29z"/>
	</g>
	<g>
		<path fill="#325E9B" d="M384.38,188.4c45.68-2.98,92.15,8.88,130.88,33.29c34.4,21.59,62.78,52.74,80.78,89.17
			c16.16,32.09,23.97,68.26,23.01,104.14c-0.89,33.35-9.42,66.51-24.97,96.05c-18.95,36.48-48.4,67.36-83.75,88.31
			C477.98,618.6,440.61,629.2,403,630.04c-31.05,0.8-62.23-5.21-90.87-17.21c-34.73-14.71-65.76-38.28-88.8-68.18
			c-24.93-31.71-40.77-70.45-45.29-110.53c-5.13-44.28,3.53-90.09,24.77-129.31c15.54-28.97,37.59-54.45,64.14-73.86
			C300.89,205.82,342.2,190.75,384.38,188.4z M298.55,240.68c0,0.9,0.01,2.69,0.01,3.59c5.44,2,12.2,0.1,16.71,4.47
			c4.3,4.64,3.17,11.49,3.76,17.27c0.5,27.2-0.07,54.41,0.32,81.62c0.54,17.07,4.25,35.1,15.62,48.42
			c10.22,12.19,25.99,17.97,41.3,20.4c0.18-6.48,0.08-12.97,0.05-19.45c-7.43-4.79-13.36-11.92-16.08-20.4
			c-5.51-16.6-4.72-34.35-4.75-51.6c0.09-21.68-0.26-43.37,0.36-65.04c0.39-4.33,0.62-9.82,4.75-12.36
			c4.55-1.98,9.73-1.33,14.41-2.79c2.14-0.3,2.03-3.17,0.47-4.17c-1.93-1.14-4.24-1.24-6.42-1.26c-9.69,0.08-19.38,0.52-29.06,0.81
			c-11.68-0.36-23.37-0.79-35.06-0.84C302.72,239.28,300.61,239.97,298.55,240.68z M428.54,240.61c-0.21,1.26-0.2,2.54-0.25,3.82
			c6,1.62,12.61,0.02,18.27,3.05c3.6,1.65,4.82,5.95,5.01,9.6c1.04,27.29,0.41,54.61,0.59,81.92c-0.46,14.6-0.15,29.94-6.68,43.41
			c-3.35,7-9.33,12.33-16.11,15.93c-0.1,5.2-0.13,10.4-0.02,15.6c15.47-5.2,29.82-15.6,37.08-30.53c9.15-17.98,9.2-38.71,9.15-58.41
			c0.12-21-0.18-42.01,0.21-63.01c0.45-4.84,0.16-10.63,3.91-14.29c4.83-3.11,10.92-1.85,16.29-3.09c0.16-1.18,0.27-2.37,0.33-3.56
			c-1.6-1.75-4.09-1.74-6.26-1.78c-11.04-0.02-22.07,0.86-33.11,0.49c-7.34-0.22-14.68-0.46-22.02-0.5
			C432.76,239.35,430.33,239.15,428.54,240.61z M365.41,317.65c-2.76,0.21-4.19,3.28-2.76,5.61c5.5,1.64,11.75,0.16,16.86,3.25
			c3.96,2.32,4.32,7.4,4.74,11.49c0.54,11.99,0.35,24,0.4,36c-0.02,25.66,0.06,51.33-0.04,77c-0.19,11.16,0.05,22.45-2.1,33.46
			c-0.67,3.3-2.03,7.42-5.86,8.05c-3.92,1.33-8.5,0-12.11,2.14c-2.41,2.98,1.52,5.71,4.43,5.14c22.67-0.19,45.36-0.94,68.03-0.38
			c17,0.17,34.01,0.66,51.01,0.25c3.71,0.06,7.97-1.49,9.1-5.39c2.67-8.86,3.47-18.17,4.36-27.34c-0.04-2.25,0.7-5.61-1.85-6.74
			c-2.23-1.36-4.98,0.65-5.21,3.05c-1.16,5.47-2.97,11.09-6.93,15.22c-4.86,4.07-11.45,4.89-17.54,5.48
			c-8.29,0.57-16.62,0.48-24.92,0.21c-5.95-0.41-12.29-0.52-17.58-3.63c-4.68-2.72-4.83-8.77-5.6-13.5
			c-1.47-20.97-0.97-42.01-1.05-63.02c0.13-21.36-0.39-42.73,0.56-64.07c0.31-4.52-0.05-9.82,3.26-13.39
			c5.08-3.5,11.59-1.64,17.32-2.62c1.28-0.3,3.51-0.18,3.61-2.02c0.8-3.15-3.15-4.41-5.6-4.44c-11.65-0.26-23.3,0.31-34.93,0.71
			C391.81,318.08,378.59,316.82,365.41,317.65z M363.72,535.69c-11.71,8.31-12.33,27.74-1.31,36.89c7.3,6.54,17.81,6.82,27.03,5.75
			c1.63-0.4,3.88-0.46,4.54-2.33c1.26-2.91,1.36-6.15,1.58-9.26c-1.59,2.05-2.69,4.47-4.54,6.31c-2.52,2.02-5.94,2.24-9.04,2.27
			c-6.82,0.24-13.07-4.26-16.28-10.06c-3.23-5.69-3.38-12.6-2.09-18.86c1.23-5.15,4.67-10.25,10.07-11.57
			c4.97-1.13,10.49-0.99,15.12,1.29c3.4,1.56,4.37,5.43,6.03,8.45c0.37-3.89,0.43-7.78,0.49-11.67
			C384.95,530.92,372.89,529.2,363.72,535.69z M411.04,530.54c-2.93,14.16-4.33,28.62-6.8,42.87c-0.21,2.44-2.67,3.3-4.39,4.55
			c4.78-0.25,9.56-0.11,14.34-0.15c-1.8-0.73-3.63-1.38-5.45-2.03c0.59-9.09,1.93-18.12,3.31-27.11c5.63,9.54,9.3,20.11,15.04,29.6
			c5.91-9.73,9.69-20.58,15.21-30.53c1.11,5.42,1.57,10.94,2.41,16.4c0.68,4.48,1.32,9.02,0.92,13.56
			c4.87,0.25,9.76,0.76,14.65,0.36c-2.1-1.02-4.59-1.45-6.33-3.06c-1.82-4.65-1.66-9.76-2.53-14.61c-1.66-9.86-2.54-19.85-4.7-29.61
			c-3.02,3.6-4.53,8.11-6.58,12.28c-3.57,7.48-6.87,15.09-10.53,22.53c-0.29,0-0.88,0.02-1.17,0.02
			c-2.99-5.78-5.44-11.83-8.42-17.62C417.01,542.19,415.04,535.79,411.04,530.54z M470.95,534.87
			c-12.86,7.62-14.04,28.37-2.55,37.74c8.45,7.33,20.76,7.07,31.09,4.83c1.21-3.46,1.89-7.08,2.07-10.73
			c-1.93,2.38-3.09,5.54-5.8,7.19c-3.35,1.52-7.19,1.66-10.79,1.21c-7.72-1.31-13.78-7.98-15.47-15.46
			c-1.02-4.85-0.79-9.94,0.48-14.72c1.53-5.46,6.36-10.01,12.09-10.57c4.53-0.36,9.41-0.26,13.43,2.13
			c2.92,1.75,3.66,5.29,5.15,8.11c0.37-3.9,0.57-7.81,0.63-11.72C491.32,531.13,480.06,529.27,470.95,534.87z M298.68,532.16
			c1.7,0.73,3.44,1.41,5.17,2.12c0.86,8.21,0.31,16.48,0.44,24.72c-0.16,5.49,0.5,11.1-0.78,16.5c-1.37,1.07-3.02,1.68-4.56,2.46
			c6.43-0.32,12.87-0.05,19.3-0.16c-1.95-0.73-3.93-1.36-5.9-2.02c-1.19-6.98-0.66-14.08-0.68-21.12c7.7-0.07,15.41-0.14,23.11,0.02
			c-0.13,6.32,0.26,12.66-0.28,18.96c0.17,2.68-2.86,3.21-4.63,4.36c6.17-0.31,12.36-0.17,18.54-0.08
			c-1.78-0.99-4.16-1.23-5.48-2.85c-0.91-4.29-0.53-8.73-0.61-13.08c0.11-9.16-0.26-18.34,0.22-27.5c1.53-0.81,3.08-1.59,4.62-2.39
			c-5.82,0.18-11.64,0.14-17.45,0.08c1.61,0.79,3.24,1.54,4.86,2.32c0.29,5.59,0.21,11.2,0.21,16.8c-7.7,0.06-15.4,0.1-23.09,0.01
			c0-5.09-0.39-10.2,0.16-15.26c0.16-2.29,2.74-2.84,4.28-4.01C310.32,532.36,304.49,532.21,298.68,532.16z"/>
	</g>
</g>
<g>
	<g>
		<path fill="#FBFAFE" d="M381.36,157.29c44.38-3.13,89.55,6.07,129.31,26.03c33.3,16.7,62.9,40.79,85.87,70.13
			c25.72,32.66,43.3,71.79,50.18,112.81c8.03,45.54,2.9,93.25-14.27,136.17c-13.6,34.16-34.92,65.16-61.68,90.34
			c-26.61,24.98-58.61,44.2-93.25,55.73c-37.44,12.39-77.8,16.07-116.8,10.11c-40.65-5.91-79.68-22.24-112.7-46.62
			c-28.75-21.16-52.86-48.55-70.38-79.65c-22.36-39.42-33.56-85.04-32.18-130.33c1.02-40.36,12.01-80.5,31.86-115.68
			c28.93-52.19,77.04-93.39,133.04-113.99C333.13,163.93,357.11,158.66,381.36,157.29z M379.47,162.66
			c-34.01,2.44-67.45,12.23-97.54,28.24c-57.64,30.48-102.34,84.63-120.82,147.21c-18.9,61.56-11.91,130.46,18.68,187.09
			c16.8,31.56,40.66,59.26,69.15,80.83c31.61,24.03,69.17,40.16,108.33,46.69c29.45,4.78,59.74,4.47,89-1.48
			c36.88-7.26,72-23.25,101.77-46.19c27.85-21.24,51.09-48.49,67.65-79.36c18.53-34.18,28.58-72.84,29.34-111.69
			c0.86-39.43-7.97-79.09-25.6-114.39c-15.29-31.14-37.47-58.76-64.15-80.89c-32.6-27.1-72.3-45.51-114.04-52.92
			C420.91,161.94,400.08,161.54,379.47,162.66z"/>
	</g>
</g>
<g>
	<g>
		<path fill="#A1549E" d="M379.47,162.66c20.61-1.12,41.44-0.72,61.77,3.14c41.74,7.41,81.44,25.82,114.04,52.92
			c26.68,22.13,48.86,49.75,64.15,80.89c17.63,35.3,26.46,74.96,25.6,114.39c-0.76,38.85-10.81,77.51-29.34,111.69
			c-16.56,30.87-39.8,58.12-67.65,79.36c-29.77,22.94-64.89,38.93-101.77,46.19c-29.26,5.95-59.55,6.26-89,1.48
			c-39.16-6.53-76.72-22.66-108.33-46.69c-28.49-21.57-52.35-49.27-69.15-80.83c-30.59-56.63-37.58-125.53-18.68-187.09
			c18.48-62.58,63.18-116.73,120.82-147.21C312.02,174.89,345.46,165.1,379.47,162.66z M376.37,178.33
			c-47.67,4.2-93.75,23.82-129.93,55.1c-27.65,23.66-49.63,53.91-63.52,87.54c-15.12,36.41-20.65,76.76-15.87,115.89
			c4.93,42.84,22.47,84.05,49.51,117.59c24.09,29.99,55.72,53.89,91.19,68.8c38.92,16.41,82.37,21.8,124.14,15.54
			c37.9-5.66,74.36-20.86,104.92-44c28.28-21.18,51.63-48.9,67.64-80.4c17.17-33.33,25.73-70.94,25.19-108.4
			c-0.49-42.74-13.24-85.27-36.38-121.22c-18.27-28.65-42.93-53.21-71.65-71.38C478.83,186.05,426.9,173.58,376.37,178.33z"/>
	</g>
</g>
<g>
	<path fill="#089784" d="M225.21,195.19c2.09-12.52,12.93-22.02,24.93-24.89c2.53-0.41,4.75,1.3,6.88,2.37
		c-4.84,6.62-12.76,9.51-19.11,14.3C233.88,190.01,229.68,192.84,225.21,195.19z"/>
</g>
<g>
	<g>
		<path fill="#FCFCFD" d="M376.37,178.33c50.53-4.75,102.46,7.72,145.24,35.06c28.72,18.17,53.38,42.73,71.65,71.38
			c23.14,35.95,35.89,78.48,36.38,121.22c0.54,37.46-8.02,75.07-25.19,108.4c-16.01,31.5-39.36,59.22-67.64,80.4
			c-30.56,23.14-67.02,38.34-104.92,44c-41.77,6.26-85.22,0.87-124.14-15.54c-35.47-14.91-67.1-38.81-91.19-68.8
			c-27.04-33.54-44.58-74.75-49.51-117.59c-4.78-39.13,0.75-79.48,15.87-115.89c13.89-33.63,35.87-63.88,63.52-87.54
			C282.62,202.15,328.7,182.53,376.37,178.33z M384.38,188.4c-42.18,2.35-83.49,17.42-117.43,42.55
			c-26.55,19.41-48.6,44.89-64.14,73.86c-21.24,39.22-29.9,85.03-24.77,129.31c4.52,40.08,20.36,78.82,45.29,110.53
			c23.04,29.9,54.07,53.47,88.8,68.18c28.64,12,59.82,18.01,90.87,17.21c37.61-0.84,74.98-11.44,107.33-30.68
			c35.35-20.95,64.8-51.83,83.75-88.31c15.55-29.54,24.08-62.7,24.97-96.05c0.96-35.88-6.85-72.05-23.01-104.14
			c-18-36.43-46.38-67.58-80.78-89.17C476.53,197.28,430.06,185.42,384.38,188.4z"/>
	</g>
</g>
<g>
	<path fill="#099785" d="M614.99,237.09c10.75,3.41,18.72,12.79,21.62,23.51c0.72,3.39-1.07,6.63-3.06,9.22
		c-1.65-3.04-3.76-5.78-5.74-8.6c-2.8-3.96-4.93-8.35-7.8-12.26c-2.4-3.27-4.91-6.44-7.24-9.75
		C613.51,238.51,614.25,237.8,614.99,237.09z"/>
</g>
<g>
	<path fill="#FEFEFE" d="M298.55,240.68c2.06-0.71,4.17-1.4,6.39-1.33c11.69,0.05,23.38,0.48,35.06,0.84
		c9.68-0.29,19.37-0.73,29.06-0.81c2.18,0.02,4.49,0.12,6.42,1.26c1.56,1,1.67,3.87-0.47,4.17c-4.68,1.46-9.86,0.81-14.41,2.79
		c-4.13,2.54-4.36,8.03-4.75,12.36c-0.62,21.67-0.27,43.36-0.36,65.04c0.03,17.25-0.76,35,4.75,51.6
		c2.72,8.48,8.65,15.61,16.08,20.4c0.03,6.48,0.13,12.97-0.05,19.45c-15.31-2.43-31.08-8.21-41.3-20.4
		c-11.37-13.32-15.08-31.35-15.62-48.42c-0.39-27.21,0.18-54.42-0.32-81.62c-0.59-5.78,0.54-12.63-3.76-17.27
		c-4.51-4.37-11.27-2.47-16.71-4.47C298.56,243.37,298.55,241.58,298.55,240.68z"/>
	<path fill="#FEFEFE" d="M365.41,317.65c13.18-0.83,26.4,0.43,39.6,0.52c11.63-0.4,23.28-0.97,34.93-0.71
		c2.45,0.03,6.4,1.29,5.6,4.44c-0.1,1.84-2.33,1.72-3.61,2.02c-5.73,0.98-12.24-0.88-17.32,2.62c-3.31,3.57-2.95,8.87-3.26,13.39
		c-0.95,21.34-0.43,42.71-0.56,64.07c0.08,21.01-0.42,42.05,1.05,63.02c0.77,4.73,0.92,10.78,5.6,13.5
		c5.29,3.11,11.63,3.22,17.58,3.63c8.3,0.27,16.63,0.36,24.92-0.21c6.09-0.59,12.68-1.41,17.54-5.48c3.96-4.13,5.77-9.75,6.93-15.22
		c0.23-2.4,2.98-4.41,5.21-3.05c2.55,1.13,1.81,4.49,1.85,6.74c-0.89,9.17-1.69,18.48-4.36,27.34c-1.13,3.9-5.39,5.45-9.1,5.39
		c-17,0.41-34.01-0.08-51.01-0.25c-22.67-0.56-45.36,0.19-68.03,0.38c-2.91,0.57-6.84-2.16-4.43-5.14
		c3.61-2.14,8.19-0.81,12.11-2.14c3.83-0.63,5.19-4.75,5.86-8.05c2.15-11.01,1.91-22.3,2.1-33.46c0.1-25.67,0.02-51.34,0.04-77
		c-0.05-12,0.14-24.01-0.4-36c-0.42-4.09-0.78-9.17-4.74-11.49c-5.11-3.09-11.36-1.61-16.86-3.25
		C361.22,320.93,362.65,317.86,365.41,317.65z"/>
</g>
<g>
	<path fill="#FDFEFD" d="M428.54,240.61c1.79-1.46,4.22-1.26,6.39-1.35c7.34,0.04,14.68,0.28,22.02,0.5
		c11.04,0.37,22.07-0.51,33.11-0.49c2.17,0.04,4.66,0.03,6.26,1.78c-0.06,1.19-0.17,2.38-0.33,3.56
		c-5.37,1.24-11.46-0.02-16.29,3.09c-3.75,3.66-3.46,9.45-3.91,14.29c-0.39,21-0.09,42.01-0.21,63.01c0.05,19.7,0,40.43-9.15,58.41
		c-7.26,14.93-21.61,25.33-37.08,30.53c-0.11-5.2-0.08-10.4,0.02-15.6c6.78-3.6,12.76-8.93,16.11-15.93
		c6.53-13.47,6.22-28.81,6.68-43.41c-0.18-27.31,0.45-54.63-0.59-81.92c-0.19-3.65-1.41-7.95-5.01-9.6
		c-5.66-3.03-12.27-1.43-18.27-3.05C428.34,243.15,428.33,241.87,428.54,240.61z"/>
</g>
<g>
	<path fill="#F8FCFE" d="M363.72,535.69c9.17-6.49,21.23-4.77,31.6-2.79c-0.06,3.89-0.12,7.78-0.49,11.67
		c-1.66-3.02-2.63-6.89-6.03-8.45c-4.63-2.28-10.15-2.42-15.12-1.29c-5.4,1.32-8.84,6.42-10.07,11.57
		c-1.29,6.26-1.14,13.17,2.09,18.86c3.21,5.8,9.46,10.3,16.28,10.06c3.1-0.03,6.52-0.25,9.04-2.27c1.85-1.84,2.95-4.26,4.54-6.31
		c-0.22,3.11-0.32,6.35-1.58,9.26c-0.66,1.87-2.91,1.93-4.54,2.33c-9.22,1.07-19.73,0.79-27.03-5.75
		C351.39,563.43,352.01,544,363.72,535.69z"/>
</g>
<g>
	<path fill="#FAFDFD" d="M411.04,530.54c4,5.25,5.97,11.65,8.98,17.45c2.98,5.79,5.43,11.84,8.42,17.62c0.29,0,0.88-0.02,1.17-0.02
		c3.66-7.44,6.96-15.05,10.53-22.53c2.05-4.17,3.56-8.68,6.58-12.28c2.16,9.76,3.04,19.75,4.7,29.61c0.87,4.85,0.71,9.96,2.53,14.61
		c1.74,1.61,4.23,2.04,6.33,3.06c-4.89,0.4-9.78-0.11-14.65-0.36c0.4-4.54-0.24-9.08-0.92-13.56c-0.84-5.46-1.3-10.98-2.41-16.4
		c-5.52,9.95-9.3,20.8-15.21,30.53c-5.74-9.49-9.41-20.06-15.04-29.6c-1.38,8.99-2.72,18.02-3.31,27.11
		c1.82,0.65,3.65,1.3,5.45,2.03c-4.78,0.04-9.56-0.1-14.34,0.15c1.72-1.25,4.18-2.11,4.39-4.55
		C406.71,559.16,408.11,544.7,411.04,530.54z"/>
</g>
<g>
	<path fill="#F7FDFD" d="M470.95,534.87c9.11-5.6,20.37-3.74,30.33-1.99c-0.06,3.91-0.26,7.82-0.63,11.72
		c-1.49-2.82-2.23-6.36-5.15-8.11c-4.02-2.39-8.9-2.49-13.43-2.13c-5.73,0.56-10.56,5.11-12.09,10.57
		c-1.27,4.78-1.5,9.87-0.48,14.72c1.69,7.48,7.75,14.15,15.47,15.46c3.6,0.45,7.44,0.31,10.79-1.21c2.71-1.65,3.87-4.81,5.8-7.19
		c-0.18,3.65-0.86,7.27-2.07,10.73c-10.33,2.24-22.64,2.5-31.09-4.83C456.91,563.24,458.09,542.49,470.95,534.87z"/>
</g>
<g>
	<path fill="#FAFDFE" d="M298.68,532.16c5.81,0.05,11.64,0.2,17.45-0.12c-1.54,1.17-4.12,1.72-4.28,4.01
		c-0.55,5.06-0.16,10.17-0.16,15.26c7.69,0.09,15.39,0.05,23.09-0.01c0-5.6,0.08-11.21-0.21-16.8c-1.62-0.78-3.25-1.53-4.86-2.32
		c5.81,0.06,11.63,0.1,17.45-0.08c-1.54,0.8-3.09,1.58-4.62,2.39c-0.48,9.16-0.11,18.34-0.22,27.5c0.08,4.35-0.3,8.79,0.61,13.08
		c1.32,1.62,3.7,1.86,5.48,2.85c-6.18-0.09-12.37-0.23-18.54,0.08c1.77-1.15,4.8-1.68,4.63-4.36c0.54-6.3,0.15-12.64,0.28-18.96
		c-7.7-0.16-15.41-0.09-23.11-0.02c0.02,7.04-0.51,14.14,0.68,21.12c1.97,0.66,3.95,1.29,5.9,2.02c-6.43,0.11-12.87-0.16-19.3,0.16
		c1.54-0.78,3.19-1.39,4.56-2.46c1.28-5.4,0.62-11.01,0.78-16.5c-0.13-8.24,0.42-16.51-0.44-24.72
		C302.12,533.57,300.38,532.89,298.68,532.16z"/>
</g>
<g>
	<path fill="#099884" d="M159.53,558.67c-1.02-3.65,0.14-7.59,2.66-10.35c4.3,7.66,9.5,14.77,14.68,21.84
		c2.82,3.87,5.28,8.02,8.57,11.52C173.05,580.52,162.97,570.27,159.53,558.67z"/>
</g>
<g>
	<path fill="#099882" d="M556.84,631.83c4.3-2.77,7.77-7.49,13.29-7.68c-2.38,11.52-12.37,20.28-23.42,23.36
		c-3.49,0.89-6.86-1.04-9.59-3.01C544.08,640.92,550.35,636.17,556.84,631.83z"/>
</g>
<g>
	<path fill="#1F7891" d="M434.62,679.07c7.77-3.09,16.25-3.63,24.52-4.24c0.02,0.37,0.06,1.11,0.09,1.48
		c-8.28,1.37-16.33,3.95-24.71,4.64C434.54,680.48,434.59,679.54,434.62,679.07z"/>
</g>
</svg>
